<mxfile host="app.diagrams.net" modified="2023-02-16T11:47:41.380Z" agent="5.0 (Windows NT 10.0; Win64; x64) AppleWebKit/537.36 (KHTML, like Gecko) Chrome/110.0.0.0 Safari/537.36" etag="C8pJO1_tufrtV7gD_w8I" version="20.8.20" type="github">
  <diagram name="第 1 页" id="U8ydg2A2JW9uMpUj9Be2">
    <mxGraphModel dx="2016" dy="949" grid="1" gridSize="10" guides="1" tooltips="1" connect="1" arrows="1" fold="1" page="1" pageScale="1" pageWidth="827" pageHeight="1169" math="0" shadow="0">
      <root>
        <mxCell id="0" />
        <mxCell id="1" parent="0" />
        <mxCell id="imzyElsVaJJx6ul332XI-1" value="&lt;font style=&quot;font-size: 18px;&quot;&gt;物联网设备&lt;/font&gt;" style="shape=umlActor;verticalLabelPosition=bottom;verticalAlign=top;html=1;outlineConnect=0;" parent="1" vertex="1">
          <mxGeometry x="130" y="270" width="30" height="60" as="geometry" />
        </mxCell>
        <mxCell id="imzyElsVaJJx6ul332XI-2" value="数据采集与上传" style="ellipse;whiteSpace=wrap;html=1;fontSize=18;" parent="1" vertex="1">
          <mxGeometry x="240" y="255" width="140" height="70" as="geometry" />
        </mxCell>
        <mxCell id="imzyElsVaJJx6ul332XI-5" value="" style="endArrow=open;endFill=1;endSize=12;html=1;rounded=0;fontSize=18;exitX=1;exitY=0.3333333333333333;exitDx=0;exitDy=0;exitPerimeter=0;entryX=0;entryY=0.5;entryDx=0;entryDy=0;" parent="1" source="imzyElsVaJJx6ul332XI-1" target="imzyElsVaJJx6ul332XI-2" edge="1">
          <mxGeometry width="160" relative="1" as="geometry">
            <mxPoint x="180" y="430" as="sourcePoint" />
            <mxPoint x="340" y="430" as="targetPoint" />
          </mxGeometry>
        </mxCell>
        <mxCell id="imzyElsVaJJx6ul332XI-6" value="&amp;lt;&amp;lt;include&amp;gt;&amp;gt;" style="html=1;verticalAlign=bottom;labelBackgroundColor=none;endArrow=open;endFill=0;dashed=1;rounded=0;fontSize=18;exitX=1;exitY=0.5;exitDx=0;exitDy=0;entryX=0;entryY=0.5;entryDx=0;entryDy=0;" parent="1" source="imzyElsVaJJx6ul332XI-2" target="imzyElsVaJJx6ul332XI-7" edge="1">
          <mxGeometry x="-0.1918" y="11" width="160" relative="1" as="geometry">
            <mxPoint x="400" y="290" as="sourcePoint" />
            <mxPoint x="490" y="240" as="targetPoint" />
            <mxPoint as="offset" />
          </mxGeometry>
        </mxCell>
        <mxCell id="imzyElsVaJJx6ul332XI-7" value="数据采集" style="ellipse;whiteSpace=wrap;html=1;fontSize=18;" parent="1" vertex="1">
          <mxGeometry x="500" y="200" width="140" height="70" as="geometry" />
        </mxCell>
        <mxCell id="imzyElsVaJJx6ul332XI-8" style="edgeStyle=none;rounded=0;orthogonalLoop=1;jettySize=auto;html=1;entryX=0;entryY=0.5;entryDx=0;entryDy=0;fontSize=18;" parent="1" source="imzyElsVaJJx6ul332XI-7" target="imzyElsVaJJx6ul332XI-7" edge="1">
          <mxGeometry relative="1" as="geometry" />
        </mxCell>
        <mxCell id="imzyElsVaJJx6ul332XI-11" value="数据上传" style="ellipse;whiteSpace=wrap;html=1;fontSize=18;" parent="1" vertex="1">
          <mxGeometry x="500" y="320" width="140" height="70" as="geometry" />
        </mxCell>
        <mxCell id="imzyElsVaJJx6ul332XI-12" style="edgeStyle=none;rounded=0;orthogonalLoop=1;jettySize=auto;html=1;entryX=0;entryY=0.5;entryDx=0;entryDy=0;fontSize=18;" parent="1" source="imzyElsVaJJx6ul332XI-11" target="imzyElsVaJJx6ul332XI-11" edge="1">
          <mxGeometry relative="1" as="geometry" />
        </mxCell>
        <mxCell id="imzyElsVaJJx6ul332XI-13" value="&amp;lt;&amp;lt;include&amp;gt;&amp;gt;" style="html=1;verticalAlign=bottom;labelBackgroundColor=none;endArrow=open;endFill=0;dashed=1;rounded=0;fontSize=18;exitX=1;exitY=0.5;exitDx=0;exitDy=0;entryX=0;entryY=0.5;entryDx=0;entryDy=0;" parent="1" source="imzyElsVaJJx6ul332XI-2" target="imzyElsVaJJx6ul332XI-11" edge="1">
          <mxGeometry x="0.0356" y="-23" width="160" relative="1" as="geometry">
            <mxPoint x="400" y="360" as="sourcePoint" />
            <mxPoint x="520" y="305" as="targetPoint" />
            <mxPoint as="offset" />
          </mxGeometry>
        </mxCell>
        <mxCell id="imzyElsVaJJx6ul332XI-14" value="&lt;font style=&quot;font-size: 18px;&quot;&gt;物联网设备&lt;/font&gt;" style="shape=umlActor;verticalLabelPosition=bottom;verticalAlign=top;html=1;outlineConnect=0;" parent="1" vertex="1">
          <mxGeometry x="180" y="760" width="30" height="60" as="geometry" />
        </mxCell>
        <mxCell id="imzyElsVaJJx6ul332XI-15" value="数据采集与上传" style="ellipse;whiteSpace=wrap;html=1;fontSize=18;" parent="1" vertex="1">
          <mxGeometry x="310" y="695" width="140" height="70" as="geometry" />
        </mxCell>
        <mxCell id="imzyElsVaJJx6ul332XI-16" value="" style="endArrow=open;endFill=1;endSize=12;html=1;rounded=0;fontSize=18;exitX=1;exitY=0.3333333333333333;exitDx=0;exitDy=0;exitPerimeter=0;entryX=0;entryY=0.5;entryDx=0;entryDy=0;" parent="1" source="imzyElsVaJJx6ul332XI-14" target="imzyElsVaJJx6ul332XI-15" edge="1">
          <mxGeometry width="160" relative="1" as="geometry">
            <mxPoint x="230" y="920" as="sourcePoint" />
            <mxPoint x="390" y="920" as="targetPoint" />
          </mxGeometry>
        </mxCell>
        <mxCell id="imzyElsVaJJx6ul332XI-17" value="&amp;lt;&amp;lt;include&amp;gt;&amp;gt;" style="html=1;verticalAlign=bottom;labelBackgroundColor=none;endArrow=open;endFill=0;dashed=1;rounded=0;fontSize=18;exitX=1;exitY=0.5;exitDx=0;exitDy=0;entryX=0;entryY=0.5;entryDx=0;entryDy=0;" parent="1" source="imzyElsVaJJx6ul332XI-15" target="imzyElsVaJJx6ul332XI-18" edge="1">
          <mxGeometry x="-0.1918" y="11" width="160" relative="1" as="geometry">
            <mxPoint x="470" y="730" as="sourcePoint" />
            <mxPoint x="560" y="680" as="targetPoint" />
            <mxPoint as="offset" />
          </mxGeometry>
        </mxCell>
        <mxCell id="imzyElsVaJJx6ul332XI-18" value="数据采集" style="ellipse;whiteSpace=wrap;html=1;fontSize=18;" parent="1" vertex="1">
          <mxGeometry x="570" y="640" width="140" height="70" as="geometry" />
        </mxCell>
        <mxCell id="imzyElsVaJJx6ul332XI-19" style="edgeStyle=none;rounded=0;orthogonalLoop=1;jettySize=auto;html=1;entryX=0;entryY=0.5;entryDx=0;entryDy=0;fontSize=18;" parent="1" source="imzyElsVaJJx6ul332XI-18" target="imzyElsVaJJx6ul332XI-18" edge="1">
          <mxGeometry relative="1" as="geometry" />
        </mxCell>
        <mxCell id="imzyElsVaJJx6ul332XI-20" value="数据上传" style="ellipse;whiteSpace=wrap;html=1;fontSize=18;" parent="1" vertex="1">
          <mxGeometry x="570" y="760" width="140" height="70" as="geometry" />
        </mxCell>
        <mxCell id="imzyElsVaJJx6ul332XI-21" style="edgeStyle=none;rounded=0;orthogonalLoop=1;jettySize=auto;html=1;entryX=0;entryY=0.5;entryDx=0;entryDy=0;fontSize=18;" parent="1" source="imzyElsVaJJx6ul332XI-20" target="imzyElsVaJJx6ul332XI-20" edge="1">
          <mxGeometry relative="1" as="geometry" />
        </mxCell>
        <mxCell id="imzyElsVaJJx6ul332XI-22" value="&amp;lt;&amp;lt;include&amp;gt;&amp;gt;" style="html=1;verticalAlign=bottom;labelBackgroundColor=none;endArrow=open;endFill=0;dashed=1;rounded=0;fontSize=18;exitX=1;exitY=0.5;exitDx=0;exitDy=0;entryX=0;entryY=0.5;entryDx=0;entryDy=0;" parent="1" source="imzyElsVaJJx6ul332XI-15" target="imzyElsVaJJx6ul332XI-20" edge="1">
          <mxGeometry x="0.0356" y="-23" width="160" relative="1" as="geometry">
            <mxPoint x="470" y="800" as="sourcePoint" />
            <mxPoint x="590" y="745" as="targetPoint" />
            <mxPoint as="offset" />
          </mxGeometry>
        </mxCell>
        <mxCell id="imzyElsVaJJx6ul332XI-23" value="数据接入与处理" style="ellipse;whiteSpace=wrap;html=1;fontSize=18;" parent="1" vertex="1">
          <mxGeometry x="310" y="915" width="140" height="70" as="geometry" />
        </mxCell>
        <mxCell id="imzyElsVaJJx6ul332XI-24" value="&amp;lt;&amp;lt;include&amp;gt;&amp;gt;" style="html=1;verticalAlign=bottom;labelBackgroundColor=none;endArrow=open;endFill=0;dashed=1;rounded=0;fontSize=18;exitX=1;exitY=0.5;exitDx=0;exitDy=0;entryX=0;entryY=0.5;entryDx=0;entryDy=0;" parent="1" source="imzyElsVaJJx6ul332XI-23" target="imzyElsVaJJx6ul332XI-25" edge="1">
          <mxGeometry x="-0.1918" y="11" width="160" relative="1" as="geometry">
            <mxPoint x="470" y="950" as="sourcePoint" />
            <mxPoint x="560" y="900" as="targetPoint" />
            <mxPoint as="offset" />
          </mxGeometry>
        </mxCell>
        <mxCell id="imzyElsVaJJx6ul332XI-25" value="数据接收与解析" style="ellipse;whiteSpace=wrap;html=1;fontSize=18;" parent="1" vertex="1">
          <mxGeometry x="570" y="860" width="140" height="70" as="geometry" />
        </mxCell>
        <mxCell id="imzyElsVaJJx6ul332XI-26" style="edgeStyle=none;rounded=0;orthogonalLoop=1;jettySize=auto;html=1;entryX=0;entryY=0.5;entryDx=0;entryDy=0;fontSize=18;" parent="1" source="imzyElsVaJJx6ul332XI-25" target="imzyElsVaJJx6ul332XI-25" edge="1">
          <mxGeometry relative="1" as="geometry" />
        </mxCell>
        <mxCell id="imzyElsVaJJx6ul332XI-27" value="数据处理" style="ellipse;whiteSpace=wrap;html=1;fontSize=18;" parent="1" vertex="1">
          <mxGeometry x="550" y="1050" width="140" height="70" as="geometry" />
        </mxCell>
        <mxCell id="imzyElsVaJJx6ul332XI-28" style="edgeStyle=none;rounded=0;orthogonalLoop=1;jettySize=auto;html=1;entryX=0;entryY=0.5;entryDx=0;entryDy=0;fontSize=18;" parent="1" source="imzyElsVaJJx6ul332XI-27" target="imzyElsVaJJx6ul332XI-27" edge="1">
          <mxGeometry relative="1" as="geometry" />
        </mxCell>
        <mxCell id="imzyElsVaJJx6ul332XI-29" value="&amp;lt;&amp;lt;include&amp;gt;&amp;gt;" style="html=1;verticalAlign=bottom;labelBackgroundColor=none;endArrow=open;endFill=0;dashed=1;rounded=0;fontSize=18;exitX=1;exitY=0.5;exitDx=0;exitDy=0;entryX=0;entryY=0.5;entryDx=0;entryDy=0;" parent="1" source="imzyElsVaJJx6ul332XI-23" target="imzyElsVaJJx6ul332XI-27" edge="1">
          <mxGeometry x="0.0356" y="-23" width="160" relative="1" as="geometry">
            <mxPoint x="470" y="1020" as="sourcePoint" />
            <mxPoint x="590" y="965" as="targetPoint" />
            <mxPoint as="offset" />
          </mxGeometry>
        </mxCell>
        <mxCell id="imzyElsVaJJx6ul332XI-30" value="" style="endArrow=open;endFill=1;endSize=12;html=1;rounded=0;fontSize=18;exitX=1;exitY=0.3333333333333333;exitDx=0;exitDy=0;exitPerimeter=0;entryX=0;entryY=0.5;entryDx=0;entryDy=0;" parent="1" source="imzyElsVaJJx6ul332XI-14" target="imzyElsVaJJx6ul332XI-23" edge="1">
          <mxGeometry width="160" relative="1" as="geometry">
            <mxPoint x="190" y="910" as="sourcePoint" />
            <mxPoint x="290" y="860" as="targetPoint" />
          </mxGeometry>
        </mxCell>
        <mxCell id="imzyElsVaJJx6ul332XI-33" value="接收数据并解析" style="ellipse;whiteSpace=wrap;html=1;fontSize=18;" parent="1" vertex="1">
          <mxGeometry x="790" y="810" width="140" height="70" as="geometry" />
        </mxCell>
        <mxCell id="imzyElsVaJJx6ul332XI-36" value="&amp;lt;&amp;lt;include&amp;gt;&amp;gt;" style="html=1;verticalAlign=bottom;labelBackgroundColor=none;endArrow=open;endFill=0;dashed=1;rounded=0;fontSize=18;exitX=1;exitY=0.5;exitDx=0;exitDy=0;entryX=0;entryY=0.5;entryDx=0;entryDy=0;" parent="1" source="imzyElsVaJJx6ul332XI-25" target="imzyElsVaJJx6ul332XI-33" edge="1">
          <mxGeometry x="0.0356" y="-23" width="160" relative="1" as="geometry">
            <mxPoint x="840" y="990" as="sourcePoint" />
            <mxPoint x="960" y="1055" as="targetPoint" />
            <mxPoint as="offset" />
          </mxGeometry>
        </mxCell>
        <mxCell id="imzyElsVaJJx6ul332XI-37" value="数据推送" style="ellipse;whiteSpace=wrap;html=1;fontSize=18;" parent="1" vertex="1">
          <mxGeometry x="790" y="910" width="140" height="70" as="geometry" />
        </mxCell>
        <mxCell id="imzyElsVaJJx6ul332XI-38" value="&amp;lt;&amp;lt;include&amp;gt;&amp;gt;" style="html=1;verticalAlign=bottom;labelBackgroundColor=none;endArrow=open;endFill=0;dashed=1;rounded=0;fontSize=18;exitX=1;exitY=0.5;exitDx=0;exitDy=0;entryX=0;entryY=0.5;entryDx=0;entryDy=0;" parent="1" source="imzyElsVaJJx6ul332XI-25" target="imzyElsVaJJx6ul332XI-37" edge="1">
          <mxGeometry x="0.0356" y="-23" width="160" relative="1" as="geometry">
            <mxPoint x="850" y="1060" as="sourcePoint" />
            <mxPoint x="920" y="1020" as="targetPoint" />
            <mxPoint as="offset" />
          </mxGeometry>
        </mxCell>
        <mxCell id="imzyElsVaJJx6ul332XI-39" value="&amp;lt;&amp;lt;include&amp;gt;&amp;gt;" style="html=1;verticalAlign=bottom;labelBackgroundColor=none;endArrow=open;endFill=0;dashed=1;rounded=0;fontSize=18;exitX=1;exitY=0.5;exitDx=0;exitDy=0;entryX=0;entryY=0.5;entryDx=0;entryDy=0;" parent="1" source="imzyElsVaJJx6ul332XI-27" target="imzyElsVaJJx6ul332XI-41" edge="1">
          <mxGeometry x="0.0356" y="-23" width="160" relative="1" as="geometry">
            <mxPoint x="850" y="1070" as="sourcePoint" />
            <mxPoint x="920" y="1030" as="targetPoint" />
            <mxPoint as="offset" />
          </mxGeometry>
        </mxCell>
        <mxCell id="imzyElsVaJJx6ul332XI-40" value="消息发布" style="ellipse;whiteSpace=wrap;html=1;fontSize=18;" parent="1" vertex="1">
          <mxGeometry x="790" y="1200" width="140" height="70" as="geometry" />
        </mxCell>
        <mxCell id="imzyElsVaJJx6ul332XI-41" value="数据持久化" style="ellipse;whiteSpace=wrap;html=1;fontSize=18;" parent="1" vertex="1">
          <mxGeometry x="780" y="1010" width="140" height="70" as="geometry" />
        </mxCell>
        <mxCell id="imzyElsVaJJx6ul332XI-42" value="数据聚合" style="ellipse;whiteSpace=wrap;html=1;fontSize=18;" parent="1" vertex="1">
          <mxGeometry x="780" y="1110" width="140" height="70" as="geometry" />
        </mxCell>
        <mxCell id="imzyElsVaJJx6ul332XI-43" value="&amp;lt;&amp;lt;include&amp;gt;&amp;gt;" style="html=1;verticalAlign=bottom;labelBackgroundColor=none;endArrow=open;endFill=0;dashed=1;rounded=0;fontSize=18;exitX=1;exitY=0.5;exitDx=0;exitDy=0;entryX=0;entryY=0.5;entryDx=0;entryDy=0;" parent="1" source="imzyElsVaJJx6ul332XI-27" target="imzyElsVaJJx6ul332XI-42" edge="1">
          <mxGeometry x="0.0356" y="-23" width="160" relative="1" as="geometry">
            <mxPoint x="690" y="1220" as="sourcePoint" />
            <mxPoint x="760" y="1180" as="targetPoint" />
            <mxPoint as="offset" />
          </mxGeometry>
        </mxCell>
        <mxCell id="imzyElsVaJJx6ul332XI-45" value="&amp;lt;&amp;lt;include&amp;gt;&amp;gt;" style="html=1;verticalAlign=bottom;labelBackgroundColor=none;endArrow=open;endFill=0;dashed=1;rounded=0;fontSize=18;exitX=1;exitY=0.5;exitDx=0;exitDy=0;entryX=0;entryY=0.5;entryDx=0;entryDy=0;" parent="1" source="imzyElsVaJJx6ul332XI-27" target="imzyElsVaJJx6ul332XI-40" edge="1">
          <mxGeometry x="0.0356" y="-23" width="160" relative="1" as="geometry">
            <mxPoint x="620" y="1190" as="sourcePoint" />
            <mxPoint x="710" y="1250" as="targetPoint" />
            <mxPoint as="offset" />
          </mxGeometry>
        </mxCell>
        <mxCell id="imzyElsVaJJx6ul332XI-46" value="数据服务管理" style="ellipse;whiteSpace=wrap;html=1;fontSize=18;" parent="1" vertex="1">
          <mxGeometry x="1270" y="875" width="140" height="70" as="geometry" />
        </mxCell>
        <mxCell id="GHy5siiB72V9efiNn3XT-1" value="&lt;font style=&quot;font-size: 18px;&quot;&gt;物联网设备&lt;/font&gt;" style="shape=umlActor;verticalLabelPosition=bottom;verticalAlign=top;html=1;outlineConnect=0;" vertex="1" parent="1">
          <mxGeometry x="1500" y="890" width="30" height="60" as="geometry" />
        </mxCell>
        <mxCell id="GHy5siiB72V9efiNn3XT-2" value="" style="endArrow=open;endFill=1;endSize=12;html=1;rounded=0;fontSize=18;exitX=0;exitY=0.3333333333333333;exitDx=0;exitDy=0;exitPerimeter=0;entryX=1;entryY=0.5;entryDx=0;entryDy=0;" edge="1" parent="1" source="GHy5siiB72V9efiNn3XT-1" target="imzyElsVaJJx6ul332XI-46">
          <mxGeometry width="160" relative="1" as="geometry">
            <mxPoint x="1410" y="735" as="sourcePoint" />
            <mxPoint x="1510" y="685" as="targetPoint" />
          </mxGeometry>
        </mxCell>
        <mxCell id="GHy5siiB72V9efiNn3XT-3" value="&amp;lt;&amp;lt;include&amp;gt;&amp;gt;" style="html=1;verticalAlign=bottom;labelBackgroundColor=none;endArrow=open;endFill=0;dashed=1;rounded=0;fontSize=18;exitX=0;exitY=0.5;exitDx=0;exitDy=0;entryX=1;entryY=0.5;entryDx=0;entryDy=0;" edge="1" parent="1" source="imzyElsVaJJx6ul332XI-46" target="GHy5siiB72V9efiNn3XT-4">
          <mxGeometry x="-0.2042" y="11" width="160" relative="1" as="geometry">
            <mxPoint x="450" y="905" as="sourcePoint" />
            <mxPoint x="1160" y="745" as="targetPoint" />
            <mxPoint as="offset" />
          </mxGeometry>
        </mxCell>
        <mxCell id="GHy5siiB72V9efiNn3XT-4" value="用户管理" style="ellipse;whiteSpace=wrap;html=1;fontSize=18;" vertex="1" parent="1">
          <mxGeometry x="1000" y="710" width="140" height="70" as="geometry" />
        </mxCell>
        <mxCell id="GHy5siiB72V9efiNn3XT-5" value="设备管理" style="ellipse;whiteSpace=wrap;html=1;fontSize=18;" vertex="1" parent="1">
          <mxGeometry x="1000" y="820" width="140" height="70" as="geometry" />
        </mxCell>
        <mxCell id="GHy5siiB72V9efiNn3XT-6" value="&amp;lt;&amp;lt;include&amp;gt;&amp;gt;" style="html=1;verticalAlign=bottom;labelBackgroundColor=none;endArrow=open;endFill=0;dashed=1;rounded=0;fontSize=18;exitX=0;exitY=0.5;exitDx=0;exitDy=0;entryX=1;entryY=0.5;entryDx=0;entryDy=0;" edge="1" parent="1" source="imzyElsVaJJx6ul332XI-46" target="GHy5siiB72V9efiNn3XT-5">
          <mxGeometry x="-0.2042" y="11" width="160" relative="1" as="geometry">
            <mxPoint x="1270" y="1055" as="sourcePoint" />
            <mxPoint x="1170" y="1015" as="targetPoint" />
            <mxPoint as="offset" />
          </mxGeometry>
        </mxCell>
        <mxCell id="GHy5siiB72V9efiNn3XT-7" value="设备监测" style="ellipse;whiteSpace=wrap;html=1;fontSize=18;" vertex="1" parent="1">
          <mxGeometry x="1000" y="945" width="140" height="70" as="geometry" />
        </mxCell>
        <mxCell id="GHy5siiB72V9efiNn3XT-8" value="历史记录查询" style="ellipse;whiteSpace=wrap;html=1;fontSize=18;" vertex="1" parent="1">
          <mxGeometry x="1000" y="1055" width="140" height="70" as="geometry" />
        </mxCell>
        <mxCell id="GHy5siiB72V9efiNn3XT-9" value="&amp;lt;&amp;lt;include&amp;gt;&amp;gt;" style="html=1;verticalAlign=bottom;labelBackgroundColor=none;endArrow=open;endFill=0;dashed=1;rounded=0;fontSize=18;exitX=0;exitY=0.5;exitDx=0;exitDy=0;entryX=1;entryY=0.5;entryDx=0;entryDy=0;" edge="1" parent="1" source="imzyElsVaJJx6ul332XI-46" target="GHy5siiB72V9efiNn3XT-7">
          <mxGeometry x="-0.2042" y="11" width="160" relative="1" as="geometry">
            <mxPoint x="1250" y="795" as="sourcePoint" />
            <mxPoint x="1150" y="865" as="targetPoint" />
            <mxPoint as="offset" />
          </mxGeometry>
        </mxCell>
        <mxCell id="GHy5siiB72V9efiNn3XT-10" value="&amp;lt;&amp;lt;include&amp;gt;&amp;gt;" style="html=1;verticalAlign=bottom;labelBackgroundColor=none;endArrow=open;endFill=0;dashed=1;rounded=0;fontSize=18;exitX=0;exitY=0.5;exitDx=0;exitDy=0;entryX=1;entryY=0.5;entryDx=0;entryDy=0;" edge="1" parent="1" source="imzyElsVaJJx6ul332XI-46" target="GHy5siiB72V9efiNn3XT-8">
          <mxGeometry x="-0.2042" y="11" width="160" relative="1" as="geometry">
            <mxPoint x="1290" y="1095" as="sourcePoint" />
            <mxPoint x="1160" y="1165" as="targetPoint" />
            <mxPoint as="offset" />
          </mxGeometry>
        </mxCell>
      </root>
    </mxGraphModel>
  </diagram>
</mxfile>
